<?xml version="1.0" encoding="utf-8"?>
<!-- Generator: Adobe Illustrator 25.2.3, SVG Export Plug-In . SVG Version: 6.00 Build 0)  -->
<svg version="1.1" id="Layer_1" xmlns="http://www.w3.org/2000/svg" xmlns:xlink="http://www.w3.org/1999/xlink" x="0px" y="0px"
	 viewBox="0 0 100 105" style="enable-background:new 0 0 100 105;" xml:space="preserve">
<path d="M86,28.5h-8v-16c0-4.4-3.6-8-8-8H30c-4.4,0-8,3.6-8,8v16h-8c-6.6,0-12,5.4-12,12v32c0,6.6,5.4,12,12,12h7.3l-3.1,10.9
	c-0.6,2.1,0.6,4.3,2.7,4.9c0.4,0.1,0.7,0.2,1.1,0.2h56c2.2,0,4-1.8,4-4c0-0.4-0.1-0.7-0.2-1.1l-3.1-10.9H86c6.6,0,12-5.4,12-12v-32
	C98,33.9,92.6,28.5,86,28.5z M30,12.5h40v16H30V12.5z M27.3,92.5l5.7-20h34l5.7,20H27.3z M90,72.5c0,2.2-1.8,4-4,4h-9.6l-2.6-9.1
	c-0.5-1.7-2.1-2.9-3.8-2.9H30c-1.8,0-3.4,1.2-3.9,2.9l-2.6,9.1H14c-2.2,0-4-1.8-4-4v-32c0-2.2,1.8-4,4-4h72c2.2,0,4,1.8,4,4V72.5z"
	/>
<circle cx="22" cy="36" r="4"/>
</svg>
