<svg xmlns="http://www.w3.org/2000/svg" viewBox="0 0 994.52 400.21"><defs><style>.cls-1{fill:#ae2025;}</style></defs><g id="Layer_2" data-name="Layer 2"><g id="Content"><path class="cls-1" d="M395.77,231.68a128.35,128.35,0,0,0-24.55-10.35q-15-4.8-20.89-9.3T344.39,202a12.59,12.59,0,0,1,5.4-10.44q5.38-4.11,14.7-4.11t14.6,4.85q5.4,4.84,5.39,13.66h34.65a41.17,41.17,0,0,0-6.83-23.41,44.09,44.09,0,0,0-19.15-15.79,67.19,67.19,0,0,0-27.87-5.55,76.81,76.81,0,0,0-28.71,5.1q-12.76,5.1-19.75,14.26a33.91,33.91,0,0,0-7,21.13q0,24.06,28,37.82A182.09,182.09,0,0,0,360,248.31q13.56,4.56,19,8.81t5.4,11.88a12.24,12.24,0,0,1-5,10.44c-3.34,2.48-7.87,3.72-13.62,3.72q-13.45,0-19.45-5.5t-6-17.08H305.49a44.91,44.91,0,0,0,7.17,25.2q7.18,10.94,21.39,17.22a77.4,77.4,0,0,0,31.72,6.29q24.86,0,39.11-10.79t14.25-29.7Q419.13,245.15,395.77,231.68Z"/><path class="cls-1" d="M517.81,163.17v57.22H466.63V163.17H431.88V307.31h34.75V247.12h51.18v60.19h34.55V163.17Z"/><path class="cls-1" d="M571.65,163.17V307.31H606.3V163.17Z"/><path class="cls-1" d="M724.87,190V163.17H625.38V307.31h99.29V280.58H660.13V246.13h54.65V220.39H660.13V190Z"/><path class="cls-1" d="M768.51,280.58V163.17H733.76V307.31H829V280.58Z"/><path class="cls-1" d="M943.17,196.29a61,61,0,0,0-23.81-24.46A68.32,68.32,0,0,0,885,163.17H838.58V307.31H886a66.73,66.73,0,0,0,33.91-9,61.13,61.13,0,0,0,23.56-24.55q8.35-15.69,8.36-35.49v-6.63A73.71,73.71,0,0,0,943.17,196.29Zm-26.78,42q0,21-8,31.63t-23,10.64H873.33V190H885q15.35,0,23.36,10.59t8,31.48Z"/><path class="cls-1" d="M983.23,189.17c-.07-.64-.1-1.74-.1-3.3a10.39,10.39,0,0,0-.65-3.92,5,5,0,0,0-2.3-2.5,5.29,5.29,0,0,0,3-4.82,6.68,6.68,0,0,0-2.42-5.49,10.39,10.39,0,0,0-6.79-2h-8v24.09h4.28v-9.55h4.48a3.44,3.44,0,0,1,4.05,4.05,22.24,22.24,0,0,0,.37,5.5h4.39v-.45A5.29,5.29,0,0,1,983.23,189.17ZM977.53,177a6.6,6.6,0,0,1-3.58.89h-3.63v-7h4a6,6,0,0,1,3.64.86,3.5,3.5,0,0,1,1,2.83A2.69,2.69,0,0,1,977.53,177Zm5.7,12.17c-.07-.64-.1-1.74-.1-3.3a10.39,10.39,0,0,0-.65-3.92,5,5,0,0,0-2.3-2.5,5.29,5.29,0,0,0,3-4.82,6.68,6.68,0,0,0-2.42-5.49,10.39,10.39,0,0,0-6.79-2h-8v24.09h4.28v-9.55h4.48a3.44,3.44,0,0,1,4.05,4.05,22.24,22.24,0,0,0,.37,5.5h4.39v-.45A5.29,5.29,0,0,1,983.23,189.17ZM977.53,177a6.6,6.6,0,0,1-3.58.89h-3.63v-7h4a6,6,0,0,1,3.64.86,3.5,3.5,0,0,1,1,2.83A2.69,2.69,0,0,1,977.53,177Zm5.7,12.17c-.07-.64-.1-1.74-.1-3.3a10.39,10.39,0,0,0-.65-3.92,5,5,0,0,0-2.3-2.5,5.29,5.29,0,0,0,3-4.82,6.68,6.68,0,0,0-2.42-5.49,10.39,10.39,0,0,0-6.79-2h-8v24.09h4.28v-9.55h4.48a3.44,3.44,0,0,1,4.05,4.05,22.24,22.24,0,0,0,.37,5.5h4.39v-.45A5.29,5.29,0,0,1,983.23,189.17ZM977.53,177a6.6,6.6,0,0,1-3.58.89h-3.63v-7h4a6,6,0,0,1,3.64.86,3.5,3.5,0,0,1,1,2.83A2.69,2.69,0,0,1,977.53,177Zm5.7,12.17c-.07-.64-.1-1.74-.1-3.3a10.39,10.39,0,0,0-.65-3.92,5,5,0,0,0-2.3-2.5,5.29,5.29,0,0,0,3-4.82,6.68,6.68,0,0,0-2.42-5.49,10.39,10.39,0,0,0-6.79-2h-8v24.09h4.28v-9.55h4.48a3.44,3.44,0,0,1,4.05,4.05,22.24,22.24,0,0,0,.37,5.5h4.39v-.45A5.29,5.29,0,0,1,983.23,189.17ZM977.53,177a6.6,6.6,0,0,1-3.58.89h-3.63v-7h4a6,6,0,0,1,3.64.86,3.5,3.5,0,0,1,1,2.83A2.69,2.69,0,0,1,977.53,177Zm14.34-8.09a19.76,19.76,0,0,0-7.34-7.72,19.6,19.6,0,0,0-20.26,0,19.76,19.76,0,0,0-7.34,7.72,22.65,22.65,0,0,0,0,21.28,20.14,20.14,0,0,0,7.33,7.74,19.54,19.54,0,0,0,20.21,0,20.14,20.14,0,0,0,7.35-7.72,22.64,22.64,0,0,0,0-21.33Zm-3,19.38a16.56,16.56,0,0,1-6,6.49,16.14,16.14,0,0,1-17.08,0,16.58,16.58,0,0,1-6-6.5,18.63,18.63,0,0,1-2.11-8.73,18.32,18.32,0,0,1,2.21-8.9,16.46,16.46,0,0,1,6.08-6.41,16.2,16.2,0,0,1,16.87.1,16.59,16.59,0,0,1,6,6.46,19,19,0,0,1,0,17.5Zm-5.78-2.42a10.39,10.39,0,0,0-.65-3.92,5,5,0,0,0-2.3-2.5,5.29,5.29,0,0,0,3-4.82,6.68,6.68,0,0,0-2.42-5.49,10.39,10.39,0,0,0-6.79-2h-8v24.09h4.28v-9.55h4.48a3.44,3.44,0,0,1,4.05,4.05,22.24,22.24,0,0,0,.37,5.5h4.39v-.45a5.29,5.29,0,0,1-.38-1.62C983.16,188.53,983.13,187.43,983.13,185.87Zm-5.6-8.87a6.6,6.6,0,0,1-3.58.89h-3.63v-7h4a6,6,0,0,1,3.64.86,3.5,3.5,0,0,1,1,2.83A2.69,2.69,0,0,1,977.53,177Zm5.7,12.17c-.07-.64-.1-1.74-.1-3.3a10.39,10.39,0,0,0-.65-3.92,5,5,0,0,0-2.3-2.5,5.29,5.29,0,0,0,3-4.82,6.68,6.68,0,0,0-2.42-5.49,10.39,10.39,0,0,0-6.79-2h-8v24.09h4.28v-9.55h4.48a3.44,3.44,0,0,1,4.05,4.05,22.24,22.24,0,0,0,.37,5.5h4.39v-.45A5.29,5.29,0,0,1,983.23,189.17ZM977.53,177a6.6,6.6,0,0,1-3.58.89h-3.63v-7h4a6,6,0,0,1,3.64.86,3.5,3.5,0,0,1,1,2.83A2.69,2.69,0,0,1,977.53,177Zm5.7,12.17c-.07-.64-.1-1.74-.1-3.3a10.39,10.39,0,0,0-.65-3.92,5,5,0,0,0-2.3-2.5,5.29,5.29,0,0,0,3-4.82,6.68,6.68,0,0,0-2.42-5.49,10.39,10.39,0,0,0-6.79-2h-8v24.09h4.28v-9.55h4.48a3.44,3.44,0,0,1,4.05,4.05,22.24,22.24,0,0,0,.37,5.5h4.39v-.45A5.29,5.29,0,0,1,983.23,189.17ZM977.53,177a6.6,6.6,0,0,1-3.58.89h-3.63v-7h4a6,6,0,0,1,3.64.86,3.5,3.5,0,0,1,1,2.83A2.69,2.69,0,0,1,977.53,177Z"/><path d="M387.23,119.5q-8.07,6.84-23.17,6.84-16.79,0-26.13-13.22t-9.34-35.6V64.2q0-23.7,9.86-36.54t27.22-12.84q14.15,0,22,7.38t10.24,23.85h18.21Q414,24.44,400.77,12.22T365.67,0q-16.51,0-29.06,7.79A51,51,0,0,0,317.22,30.1q-6.84,14.53-6.84,33.68V77q0,29.25,14.67,46.71t39,17.45q22.45,0,36-11.84t16.09-33.64H397.94Q395.29,112.67,387.23,119.5Z"/><path d="M530.08,31.09Q523.28,16,510.69,8t-29.1-8a52.29,52.29,0,0,0-28.83,8.07q-12.58,8.07-19.48,23.26t-6.89,35v9.91q.19,19.44,7.12,34.2T453,133.18q12.54,8,28.78,8,16.61,0,29.06-7.92t19.24-23q6.79-15,6.8-35.24V66.33Q536.88,46.23,530.08,31.09ZM518.86,76.33Q518.57,100.21,509,113t-27.17,12.78q-17.46,0-27.41-13.54T444.41,75V64.92q.29-23.22,10.14-36.28t27-13.07q17.64,0,27.45,13.07t9.82,37.5Z"/><path d="M646.15,32.37A53.67,53.67,0,0,0,624.87,9.82q-13.79-7.93-31.7-7.93H554.39V139.27h38q18.5-.2,32.41-8a52.76,52.76,0,0,0,21.42-22.46q7.5-14.62,7.5-34.06V66Q653.65,47,646.15,32.37ZM635.81,74.31q0,24.07-11.65,37.11t-32.6,13H572.5V16.7h21.14q20.19.19,31.18,13.18t11,36.4Z"/><path d="M689.56,124.45V75.77h59.53V61H689.56V16.7h68.21V1.89H671.44V139.27h87.28V124.45Z"/><path d="M41.61,350.88A24.23,24.23,0,0,0,32,340.66a28.3,28.3,0,0,0-14.38-3.6H0v62.29H17.25a30,30,0,0,0,14.69-3.63,24,24,0,0,0,9.72-10.18,33.5,33.5,0,0,0,3.4-15.45v-4A33.27,33.27,0,0,0,41.61,350.88Zm-4.68,19q0,10.92-5.28,16.83t-14.79,5.91H8.22V343.78H17.8q9.16.09,14.14,6t5,16.51Z"/><path d="M55.87,337.06v62.29h8.22V337.06Z"/><path d="M116.25,375.27a18.4,18.4,0,0,0-6.5-6.14,51.1,51.1,0,0,0-12.15-4.82q-7.77-2.19-11-4.82A8.06,8.06,0,0,1,83.37,353a9,9,0,0,1,3.4-7.44q3.41-2.67,9.48-2.68,6.54,0,10.14,3.25a11.36,11.36,0,0,1,3.59,8.9h8.26a17.5,17.5,0,0,0-2.76-9.54,18.73,18.73,0,0,0-7.79-6.84,25.55,25.55,0,0,0-11.44-2.48q-9.41,0-15.29,4.81a15.06,15.06,0,0,0-5.89,12.17,14.25,14.25,0,0,0,4.82,10.93q4.8,4.44,15.38,7.47,8.42,2.43,11.63,4.94a8.46,8.46,0,0,1,3.21,7.08,8.62,8.62,0,0,1-3.46,7.23q-3.47,2.66-10,2.65-7,0-11.15-3.27a10.72,10.72,0,0,1-4.17-8.92H73.11a16.44,16.44,0,0,0,3,9.71,20.17,20.17,0,0,0,8.58,6.74,29.28,29.28,0,0,0,12,2.46q9.88,0,15.78-4.56a14.53,14.53,0,0,0,5.91-12.12A15.69,15.69,0,0,0,116.25,375.27Z"/><path d="M127.3,337.06v62.29h8.22V337.06Z"/><path d="M188,337.06v48.22L156.6,337.06h-8.26v62.29h8.26v-48l31.36,48h8.26V337.06Z"/><path d="M247.21,343.78v-6.72H208.62v62.29h8.21v-27.5H243v-6.72H216.83V343.78Z"/><path d="M263.07,392.64V370.56h27v-6.72h-27V343.78H294v-6.72H254.85v62.29h39.58v-6.71Z"/><path d="M335.17,390.39q-3.66,3.11-10.5,3.1a13.69,13.69,0,0,1-11.85-6q-4.24-6-4.24-16.14v-6q0-10.76,4.47-16.57a14.7,14.7,0,0,1,12.34-5.83q6.42,0,10,3.35T340,357.09h8.26q-1-9.81-7-15.34t-15.92-5.54a24.39,24.39,0,0,0-13.17,3.53,23.1,23.1,0,0,0-8.8,10.12,35.58,35.58,0,0,0-3.1,15.27v6q0,13.26,6.66,21.17t17.69,7.92q10.17,0,16.32-5.37t7.29-15.25H340Q338.84,387.29,335.17,390.39Z"/><path d="M350.93,337.06v6.72h20v55.57h8.17V343.78h20v-6.72Z"/><path d="M456.65,390.39q-3.66,3.11-10.51,3.1a13.71,13.71,0,0,1-11.85-6q-4.23-6-4.23-16.14v-6q0-10.76,4.47-16.57a14.7,14.7,0,0,1,12.34-5.83q6.42,0,10,3.35t4.64,10.82h8.26q-1-9.81-7-15.34t-15.91-5.54a24.45,24.45,0,0,0-13.18,3.53,23.15,23.15,0,0,0-8.79,10.12,35.44,35.44,0,0,0-3.1,15.27v6q0,13.26,6.65,21.17t17.69,7.92q10.19,0,16.32-5.37t7.3-15.25H461.5Q460.3,387.29,456.65,390.39Z"/><path d="M523.61,350.3a23.28,23.28,0,0,0-8.79-10.48,24.16,24.16,0,0,0-13.2-3.61,23.1,23.1,0,0,0-21.9,14.2,38.09,38.09,0,0,0-3.13,15.87v4.5a36.93,36.93,0,0,0,3.24,15.5,23.24,23.24,0,0,0,21.88,13.93,24.08,24.08,0,0,0,13.18-3.59,23.35,23.35,0,0,0,8.72-10.42,38.45,38.45,0,0,0,3.08-16v-3.94A38.64,38.64,0,0,0,523.61,350.3Zm-5.09,20.52q-.12,10.83-4.49,16.62t-12.32,5.8a14.59,14.59,0,0,1-12.43-6.14q-4.51-6.15-4.51-16.88v-4.58q.12-10.51,4.6-16.45a14.5,14.5,0,0,1,12.25-5.92q8,0,12.45,5.92t4.45,17Z"/><path d="M576.53,337.06v48.22l-31.45-48.22h-8.26v62.29h8.26v-48l31.36,48h8.26V337.06Z"/><path d="M635.69,343.78v-6.72H597.1v62.29h8.21v-27.5h26.14v-6.72H605.31V343.78Z"/><path d="M643.93,337.06v62.29h8.22V337.06Z"/><path d="M706.58,350.88a24.25,24.25,0,0,0-9.65-10.22,28.24,28.24,0,0,0-14.37-3.6H665v62.29h17.25a30,30,0,0,0,14.69-3.63,23.87,23.87,0,0,0,9.71-10.18,33.37,33.37,0,0,0,3.4-15.45v-4A33.14,33.14,0,0,0,706.58,350.88Zm-4.68,19q0,10.92-5.29,16.83t-14.78,5.91h-8.64V343.78h9.58q9.15.09,14.14,6t5,16.51Z"/><path d="M728.46,392.64V370.56h27v-6.72h-27V343.78h30.93v-6.72H720.24v62.29h39.57v-6.71Z"/><path d="M807.55,337.06v48.22l-31.44-48.22h-8.26v62.29h8.26v-48l31.36,48h8.25V337.06Z"/><path d="M821.75,337.06v6.72h20v55.57h8.17V343.78h20v-6.72Z"/><path d="M885.23,392.64V337.06H877v62.29h37.78v-6.71Z"/><path d="M947,337.06,930.7,368.34l-16.18-31.28h-9.41l21.48,39.06v23.23h8.21V376.12l21.48-39.06Z"/><path d="M283,89.73V16.05A14.07,14.07,0,0,0,268.92,2H14.2A14.2,14.2,0,0,0,0,16.18V226.94a14.57,14.57,0,0,0,7.68,12.84L24.76,249l94.53,50.73L141.5,311.6l22.21-11.92L258.23,249l17.31-9.29A14.13,14.13,0,0,0,283,227.2V130.05l-47,25.46v52.05L141.5,258.29,47,207.56V49H236v66.24Z"/><polygon class="cls-1" points="135.42 96.79 135.42 111.44 216.72 155.5 216.72 195.82 141.5 236.19 66.27 195.82 66.27 142.1 147.91 186.35 147.91 171.71 66.27 127.46 66.27 67.54 216.72 67.54 216.72 140.85 135.42 96.79"/></g></g></svg>