<svg xmlns="http://www.w3.org/2000/svg" viewBox="0 0 50.12 64.39"><defs><style>.cls-1{fill:#ae1f25;}.cls-2{fill:#fff;}</style></defs><g id="Layer_2" data-name="Layer 2"><g id="Layer_1-2" data-name="Layer 1"><path d="M13.64,55.14a1.57,1.57,0,0,1-.47.38,1.4,1.4,0,0,1-1.35-.07,1.35,1.35,0,0,1-.5-.6,2.11,2.11,0,0,1-.17-.85,2,2,0,0,1,.19-.9,1.4,1.4,0,0,1,.54-.61,1.53,1.53,0,0,1,.81-.21,1.37,1.37,0,0,1,1.16.55,2.38,2.38,0,0,1,.43,1.51v.18a3.22,3.22,0,0,1-.57,2.12,2.2,2.2,0,0,1-1.74.69h-.12v-.54H12a1.72,1.72,0,0,0,1.21-.41A1.7,1.7,0,0,0,13.64,55.14Zm-1,0a1,1,0,0,0,.59-.2,1.13,1.13,0,0,0,.39-.48v-.25a1.72,1.72,0,0,0-.27-1A.83.83,0,0,0,12,53.13a1.35,1.35,0,0,0-.25.84,1.33,1.33,0,0,0,.25.84A.77.77,0,0,0,12.67,55.14Z"/><path d="M17.23,55.14a1.75,1.75,0,0,1-.48.38,1.4,1.4,0,0,1-1.35-.07,1.35,1.35,0,0,1-.5-.6,2.11,2.11,0,0,1-.17-.85,2,2,0,0,1,.19-.9,1.46,1.46,0,0,1,.54-.61,1.53,1.53,0,0,1,.81-.21,1.37,1.37,0,0,1,1.16.55,2.38,2.38,0,0,1,.43,1.51v.18a3.22,3.22,0,0,1-.57,2.12,2.2,2.2,0,0,1-1.74.69h-.12v-.54h.13a1.72,1.72,0,0,0,1.21-.41A1.75,1.75,0,0,0,17.23,55.14Zm-1,0a1,1,0,0,0,.59-.2,1.13,1.13,0,0,0,.39-.48v-.25a1.72,1.72,0,0,0-.27-1,.83.83,0,0,0-1.36-.07,1.35,1.35,0,0,0-.25.84,1.33,1.33,0,0,0,.25.84A.77.77,0,0,0,16.25,55.14Z"/><path d="M18.46,57a.36.36,0,0,1,.1-.27.37.37,0,0,1,.29-.11.39.39,0,0,1,.3.65.4.4,0,0,1-.3.1.35.35,0,0,1-.39-.37Z"/><path d="M22.3,55.14a1.5,1.5,0,0,1-.48.38A1.32,1.32,0,0,1,20,54.85,2,2,0,0,1,19.8,54a2.2,2.2,0,0,1,.19-.9,1.46,1.46,0,0,1,.54-.61,1.53,1.53,0,0,1,.81-.21,1.38,1.38,0,0,1,1.17.55,2.44,2.44,0,0,1,.42,1.51v.18a3.22,3.22,0,0,1-.57,2.12,2.18,2.18,0,0,1-1.73.69H20.5v-.54h.14a1.71,1.71,0,0,0,1.2-.41A1.75,1.75,0,0,0,22.3,55.14Zm-1,0a1,1,0,0,0,.59-.2,1.13,1.13,0,0,0,.39-.48v-.25a1.72,1.72,0,0,0-.27-1,.81.81,0,0,0-.68-.39.79.79,0,0,0-.67.32,1.29,1.29,0,0,0-.25.84,1.39,1.39,0,0,0,.24.84A.77.77,0,0,0,21.32,55.14Z"/><path d="M25.88,55.14a1.57,1.57,0,0,1-.47.38,1.4,1.4,0,0,1-.61.14,1.37,1.37,0,0,1-.75-.21,1.33,1.33,0,0,1-.49-.6,2,2,0,0,1-.18-.85,2.2,2.2,0,0,1,.19-.9,1.46,1.46,0,0,1,.54-.61,1.56,1.56,0,0,1,.82-.21,1.37,1.37,0,0,1,1.16.55,2.44,2.44,0,0,1,.42,1.51v.18a3.22,3.22,0,0,1-.57,2.12,2.18,2.18,0,0,1-1.73.69h-.13v-.54h.14a1.71,1.71,0,0,0,1.2-.41A1.75,1.75,0,0,0,25.88,55.14Zm-1,0a1,1,0,0,0,.59-.2,1.13,1.13,0,0,0,.39-.48v-.25a1.72,1.72,0,0,0-.27-1,.81.81,0,0,0-.68-.39.79.79,0,0,0-.67.32A1.29,1.29,0,0,0,24,54a1.39,1.39,0,0,0,.24.84A.77.77,0,0,0,24.9,55.14Z"/><path d="M29.46,55.14a1.57,1.57,0,0,1-.47.38,1.4,1.4,0,0,1-.61.14,1.37,1.37,0,0,1-.75-.21,1.33,1.33,0,0,1-.49-.6A2,2,0,0,1,27,54a2.2,2.2,0,0,1,.19-.9,1.46,1.46,0,0,1,.54-.61,1.56,1.56,0,0,1,.82-.21,1.37,1.37,0,0,1,1.16.55,2.44,2.44,0,0,1,.43,1.51v.18a3.22,3.22,0,0,1-.58,2.12,2.18,2.18,0,0,1-1.73.69h-.13v-.54h.14a1.71,1.71,0,0,0,1.2-.41A1.75,1.75,0,0,0,29.46,55.14Zm-1,0a1,1,0,0,0,.58-.2,1.13,1.13,0,0,0,.39-.48v-.25a1.72,1.72,0,0,0-.27-1,.82.82,0,0,0-1.35-.07,1.29,1.29,0,0,0-.25.84,1.39,1.39,0,0,0,.24.84A.77.77,0,0,0,28.49,55.14Z"/><path d="M30.91,54.83l.25-2.48h2.55v.58h-2l-.15,1.36a1.63,1.63,0,0,1,.83-.21,1.41,1.41,0,0,1,1.08.44,1.81,1.81,0,0,1,.4,1.22A1.68,1.68,0,0,1,33.44,57a1.49,1.49,0,0,1-1.16.44A1.6,1.6,0,0,1,31.2,57a1.5,1.5,0,0,1-.47-1h.6a1,1,0,0,0,.3.64.93.93,0,0,0,.65.22.83.83,0,0,0,.69-.3,1.25,1.25,0,0,0,.25-.83,1.18,1.18,0,0,0-.27-.81.92.92,0,0,0-.72-.3,1,1,0,0,0-.65.18l-.17.14Z"/><path d="M34.14,53.31a1,1,0,0,1,.29-.74,1,1,0,0,1,.73-.29,1,1,0,0,1,.74.29,1,1,0,0,1,.28.76v.24a1,1,0,0,1-.29.74,1,1,0,0,1-.72.28,1,1,0,0,1-.74-.28,1,1,0,0,1-.29-.76Zm.47.26a.65.65,0,0,0,.15.44.53.53,0,0,0,.41.17.51.51,0,0,0,.39-.17.65.65,0,0,0,.15-.46V53.3a.67.67,0,0,0-.15-.44.56.56,0,0,0-.8,0,.69.69,0,0,0-.15.46Zm.7,3.38L35,56.72l2.43-3.89.36.23Zm1.26-.84a1,1,0,0,1,1.75-.74,1,1,0,0,1,.29.76v.24a1,1,0,0,1-.29.74,1,1,0,0,1-1.75-.76Zm.47.26a.63.63,0,0,0,.15.44.49.49,0,0,0,.4.18.48.48,0,0,0,.39-.17.69.69,0,0,0,.15-.46V56.1a.65.65,0,0,0-.15-.44.51.51,0,0,0-.4-.17.51.51,0,0,0-.39.17.67.67,0,0,0-.15.46Z"/><path d="M11.52,63H9.44L9,64.33H8.29l1.9-5h.58l1.9,5H12Zm-1.89-.53h1.7l-.85-2.33Z"/><path d="M16.61,62.75A1.84,1.84,0,0,1,16,64a1.93,1.93,0,0,1-1.3.42,1.77,1.77,0,0,1-1.42-.63,2.55,2.55,0,0,1-.53-1.69v-.48A2.77,2.77,0,0,1,13,60.37a1.85,1.85,0,0,1,.7-.81,1.92,1.92,0,0,1,1-.28,1.8,1.8,0,0,1,1.27.44A1.87,1.87,0,0,1,16.61,61H16a1.47,1.47,0,0,0-.37-.87,1.31,1.31,0,0,0-1.78.2,2.13,2.13,0,0,0-.36,1.33v.48a2.17,2.17,0,0,0,.34,1.29,1.09,1.09,0,0,0,1,.48,1.26,1.26,0,0,0,.83-.25,1.33,1.33,0,0,0,.39-.86Z"/><path d="M20.82,62.75A1.84,1.84,0,0,1,20.23,64a1.92,1.92,0,0,1-1.3.42,1.74,1.74,0,0,1-1.41-.63A2.5,2.5,0,0,1,17,62.07v-.48a2.92,2.92,0,0,1,.24-1.22,1.87,1.87,0,0,1,.71-.81,1.92,1.92,0,0,1,1-.28,1.82,1.82,0,0,1,1.27.44A1.87,1.87,0,0,1,20.82,61h-.66a1.47,1.47,0,0,0-.37-.87,1.17,1.17,0,0,0-.8-.26,1.18,1.18,0,0,0-1,.46,2.19,2.19,0,0,0-.35,1.33v.48A2.24,2.24,0,0,0,18,63.38a1.11,1.11,0,0,0,.95.48,1.28,1.28,0,0,0,.84-.25,1.39,1.39,0,0,0,.39-.86Z"/><path d="M24.87,59.35v3.38a1.58,1.58,0,0,1-.45,1.15,1.79,1.79,0,0,1-1.19.51h-.17a1.81,1.81,0,0,1-1.3-.44,1.57,1.57,0,0,1-.5-1.21V59.35h.65v3.37a1.15,1.15,0,1,0,2.3,0V59.35Z"/><path d="M27.38,62.31H26.21v2h-.66v-5H27.2a2,2,0,0,1,1.29.38,1.4,1.4,0,0,1,.45,1.12,1.32,1.32,0,0,1-.25.81,1.47,1.47,0,0,1-.7.51l1.17,2.11v0h-.7Zm-1.17-.53h1a1.12,1.12,0,0,0,.77-.26.83.83,0,0,0,.29-.68.9.9,0,0,0-.27-.7,1.13,1.13,0,0,0-.8-.25h-1Z"/><path d="M32.26,63H30.18l-.47,1.31H29l1.9-5h.58l1.9,5h-.67Zm-1.89-.53h1.7l-.85-2.33Z"/><path d="M37.35,62.75A1.84,1.84,0,0,1,36.77,64a1.93,1.93,0,0,1-1.3.42,1.77,1.77,0,0,1-1.42-.63,2.55,2.55,0,0,1-.53-1.69v-.48a2.77,2.77,0,0,1,.25-1.22,1.85,1.85,0,0,1,.7-.81,1.92,1.92,0,0,1,1.05-.28,1.8,1.8,0,0,1,1.27.44A1.87,1.87,0,0,1,37.35,61h-.66a1.41,1.41,0,0,0-.37-.87,1.15,1.15,0,0,0-.8-.26,1.16,1.16,0,0,0-1,.46,2.13,2.13,0,0,0-.36,1.33v.48a2.17,2.17,0,0,0,.34,1.29,1.09,1.09,0,0,0,.95.48,1.26,1.26,0,0,0,.83-.25,1.33,1.33,0,0,0,.39-.86Z"/><path d="M39.41,61.85l1.3-2.5h.75l-1.72,3.12v1.86h-.65V62.47l-1.72-3.12h.75Z"/><path class="cls-1" d="M44.71,32.76a21.5,21.5,0,0,1-39.7,0H1.8a24.49,24.49,0,0,0,46.12,0ZM24.86,0A24.54,24.54,0,0,0,1.91,15.92H5.15a21.49,21.49,0,0,1,39.42,0h3.24A24.54,24.54,0,0,0,24.86,0Z"/><rect class="cls-2" x="13.65" y="32.75" width="1.33" height="0.01"/><rect class="cls-2" x="20.09" y="32.75" width="1.34" height="0.01"/><polygon class="cls-2" points="23.42 30.3 12.97 30.3 12.97 18.35 23.3 18.35 23.3 21.21 16.81 21.21 16.81 22.86 22.37 22.86 22.37 25.61 16.81 25.61 16.81 27.43 23.42 27.43 23.42 30.3"/><rect class="cls-2" x="23.05" y="32.75" width="1.03" height="0.01"/><path class="cls-2" d="M28.12,32.64a3.36,3.36,0,0,1,.92.12H27.19A3.38,3.38,0,0,1,28.12,32.64Z"/><path class="cls-2" d="M34.37,32.64a3.36,3.36,0,0,1,.92.12H33.44A3.38,3.38,0,0,1,34.37,32.64Z"/><path class="cls-2" d="M34.11,25.3l2.65,5h-4.3l-2.12-4.36H28.91V30.3H25.07V18.35h7.32a4.54,4.54,0,0,1,2.19.49A3.28,3.28,0,0,1,36,20.18,3.72,3.72,0,0,1,36.42,22a3.45,3.45,0,0,1-.6,2A3.41,3.41,0,0,1,34.11,25.3Z"/><path class="cls-2" d="M46.19,23.77v1.11a2.91,2.91,0,0,1-.65,2,2.73,2.73,0,0,1-3.76,0,3,3,0,0,1-.64-2V23.77a3,3,0,0,1,.64-2,2.76,2.76,0,0,1,3.76,0A2.94,2.94,0,0,1,46.19,23.77Z"/><path d="M17.39,8.08v6.05l-4-6.05h-1V15.9h1v-6l3.94,6h1V8.08Z"/><path d="M21,15.06V12.29h3.39v-.85H21V8.92h3.89V8.08H20V15.9h5v-.84Z"/><path d="M29.08,8.08h-.9l-3,7.82h1.07L27,13.85h3.28L31,15.9h1.05ZM27.3,13l1.33-3.66L30,13Z"/><path d="M36.69,12.52a2.33,2.33,0,0,0,1.09-.81,2.1,2.1,0,0,0,.4-1.28,2.18,2.18,0,0,0-.71-1.75,3.08,3.08,0,0,0-2-.6H32.85V15.9h1V12.74h1.84l1.7,3.16h1.1v-.06Zm-1.22-.63H33.88v-3h1.58a1.85,1.85,0,0,1,1.25.4,1.4,1.4,0,0,1,.43,1.11,1.37,1.37,0,0,1-.45,1.07A1.81,1.81,0,0,1,35.47,11.89Z"/><path d="M20.09,32.75h0l-2.56,6.37L15,32.76H13.65v7.82h1v-3l-.1-3.27,2.56,6.32h.79l2.56-6.34-.09,3.29v3h1V32.75Z"/><path d="M23.05,32.75v7.82h1V32.75Z"/><path d="M30.63,37.54a2.35,2.35,0,0,0-.82-.77,6.14,6.14,0,0,0-1.52-.6,4.11,4.11,0,0,1-1.38-.61,1,1,0,0,1-.41-.81,1.1,1.1,0,0,1,.43-.93,2.21,2.21,0,0,1,2.46.07A1.43,1.43,0,0,1,29.84,35h1a2.19,2.19,0,0,0-.35-1.2A2.49,2.49,0,0,0,29,32.76a3.63,3.63,0,0,0-1.85,0,2.41,2.41,0,0,0-1,.48,1.92,1.92,0,0,0-.74,1.53,1.78,1.78,0,0,0,.6,1.37,4.86,4.86,0,0,0,1.94.94,4.6,4.6,0,0,1,1.46.62,1.18,1.18,0,0,1,0,1.8,2,2,0,0,1-1.25.33,2.24,2.24,0,0,1-1.4-.41,1.34,1.34,0,0,1-.52-1.12h-1a2.1,2.1,0,0,0,.38,1.22,2.52,2.52,0,0,0,1.08.85,3.76,3.76,0,0,0,1.5.3,3.15,3.15,0,0,0,2-.57,1.82,1.82,0,0,0,.75-1.52A2,2,0,0,0,30.63,37.54Z"/><path d="M36.88,37.54a2.35,2.35,0,0,0-.82-.77,6.14,6.14,0,0,0-1.52-.6,4.11,4.11,0,0,1-1.38-.61,1,1,0,0,1-.41-.81,1.12,1.12,0,0,1,.43-.93,2.21,2.21,0,0,1,2.46.07A1.43,1.43,0,0,1,36.09,35h1a2.19,2.19,0,0,0-.35-1.2,2.49,2.49,0,0,0-1.49-1.05,3.63,3.63,0,0,0-1.85,0,2.41,2.41,0,0,0-1,.48,1.92,1.92,0,0,0-.74,1.53,1.76,1.76,0,0,0,.61,1.37,4.74,4.74,0,0,0,1.93.94,4.6,4.6,0,0,1,1.46.62,1.06,1.06,0,0,1,.4.89,1.09,1.09,0,0,1-.44.91,2,2,0,0,1-1.25.33,2.24,2.24,0,0,1-1.4-.41,1.34,1.34,0,0,1-.52-1.12h-1a2.1,2.1,0,0,0,.38,1.22,2.52,2.52,0,0,0,1.08.85,3.76,3.76,0,0,0,1.5.3,3.2,3.2,0,0,0,2-.57,1.84,1.84,0,0,0,.74-1.52A2,2,0,0,0,36.88,37.54Z"/><polygon points="11.58 27.43 11.58 30.3 0 30.3 0 29.06 0.63 28.16 3.37 24.29 5.54 21.21 0.41 21.21 0.41 18.35 11.44 18.35 11.44 19.58 5.9 27.43 11.58 27.43"/><path d="M16.81,27.43V25.61h5.56V22.86H16.81V21.21H23.3V18.35H13v12H23.42V27.43Z"/><path d="M34.11,25.3A3.41,3.41,0,0,0,35.82,24a3.45,3.45,0,0,0,.6-2A3.72,3.72,0,0,0,36,20.18a3.28,3.28,0,0,0-1.37-1.34,4.54,4.54,0,0,0-2.19-.49H25.07v12h3.84V25.94h1.43l2.12,4.36h4.3ZM32.19,23a1,1,0,0,1-.76.32H28.91V21.07h2.52a1,1,0,0,1,.76.32,1.06,1.06,0,0,1,.32.78A1.09,1.09,0,0,1,32.19,23Z"/><path d="M49,20.38a4,4,0,0,0-.58-.66,5.78,5.78,0,0,0-3-1.42,9.06,9.06,0,0,0-1.78-.16,6.71,6.71,0,0,0-4.77,1.57,6,6,0,0,0-1.68,4.61,6,6,0,0,0,1.68,4.61,6.71,6.71,0,0,0,4.77,1.58,9.33,9.33,0,0,0,1.89-.18,5.67,5.67,0,0,0,2.88-1.41,4.4,4.4,0,0,0,.66-.77,6.52,6.52,0,0,0,1-3.83A6.48,6.48,0,0,0,49,20.38Zm-2.82,4.5a2.91,2.91,0,0,1-.65,2,2.73,2.73,0,0,1-3.76,0,3,3,0,0,1-.64-2V23.77a3,3,0,0,1,.64-2,2.76,2.76,0,0,1,3.76,0,2.94,2.94,0,0,1,.65,2Z"/></g></g></svg>