<svg xmlns="http://www.w3.org/2000/svg" viewBox="0 0 272.5 398.36"><defs><style>.cls-1{fill:#ad2026;}</style></defs><g id="Layer_2" data-name="Layer 2"><g id="Layer_1-2" data-name="Layer 1"><polygon class="cls-1" points="62.09 213.08 2.37 334.08 2.37 321.35 2.41 306.69 10.13 291.08 23.94 263.11 48.62 213.08 62.09 213.08"/><polygon class="cls-1" points="35.07 213.08 29.11 225.2 2.37 279.33 2.37 252.02 3.11 250.54 15.6 225.2 2.37 225.2 2.37 213.08 35.07 213.08"/><path d="M28.32,49.31Q14.8,45.08,8.66,38.91A20.74,20.74,0,0,1,2.51,23.67,21.76,21.76,0,0,1,10,6.71Q17.54,0,29.57,0A30.35,30.35,0,0,1,44.2,3.46,24.76,24.76,0,0,1,54.14,13a26.05,26.05,0,0,1,3.53,13.3H47.12q0-7.9-4.59-12.42t-13-4.52q-7.76,0-12.11,3.74T13.12,23.46a11.56,11.56,0,0,0,4.13,9q4.13,3.67,14,6.72a62.35,62.35,0,0,1,15.53,6.71,24.74,24.74,0,0,1,8.31,8.56A23.45,23.45,0,0,1,57.83,66q0,10.56-7.54,16.9T30.12,89.2a34.85,34.85,0,0,1-15.31-3.42,26.33,26.33,0,0,1-11-9.4A24.35,24.35,0,0,1,0,62.85H10.55q0,7.87,5.33,12.43t14.24,4.56q8.31,0,12.74-3.69a12.45,12.45,0,0,0,4.42-10.08q0-6.37-4.1-9.87T28.32,49.31Z"/><path d="M127,60.46q-1.48,13.79-9.32,21.26T96.85,89.2a27.1,27.1,0,0,1-22.6-11q-8.5-11-8.5-29.51V40.31a53.38,53.38,0,0,1,4-21.29A31.6,31.6,0,0,1,81,4.92,29.28,29.28,0,0,1,97.78,0q12.69,0,20.34,7.72T127,29.1H116.48Q115.1,18.69,110.55,14T97.78,9.36A18.25,18.25,0,0,0,82,17.48Q76.3,25.6,76.3,40.57V49q0,14.15,5.41,22.5a17.08,17.08,0,0,0,15.14,8.35q8.75,0,13.42-4.32t6.21-15.06Z"/><path d="M182.5,65.29H149.15L141.67,88H130.84L161.23,1.19h9.19L200.87,88H190.1Zm-30.18-9.36h27.06L165.83,15.32Z"/><path d="M270,88H259.4l-40.07-66.9V88H208.78V1.19h10.55l40.18,67.2V1.19H270Z"/><path class="cls-1" d="M52.84,156.33H14.52v44h-12V100.71H59v10.74H14.52v34.14H52.84Z"/><path class="cls-1" d="M82.36,189.58h43.28v10.74H70.26V100.71h12.1Z"/><path class="cls-1" d="M187.78,154.28H148.2v35.3h46v10.74h-58V100.71h57.39v10.74H148.2v32.09h39.58Z"/><path class="cls-1" d="M235.75,138.89l21.88-38.18h14.18L243,150.11l29.54,50.21H258.2l-22.45-38.86-22.58,38.86H198.93l29.6-50.21-28.91-49.4h14.11Z"/><path d="M76.34,213.09l-74,149.82v34.95l268.06.5V213.09Zm51.58,113q0,24.87-13,36.62T77.57,374.44q-24.33,0-37.36-11.74c-8.63-7.83-13-20-13-36.62v-1.74H63.83v1.56c0,6,1,10.31,3.07,12.9s5.21,3.86,9.44,3.86,7.4-1.28,9.45-3.86,3.12-6.86,3.12-12.9V239.53h39Zm115.29,37q-14.53,11.39-38.92,11.36-28.48,0-44.28-10.37t-15.82-36.85h36.92c0,6.7,1.62,11.17,4.77,13.44S194,344,200.75,344A36.15,36.15,0,0,0,213,342.25c3.25-1.15,4.85-3.53,4.85-7.11,0-3.2-1.82-5.62-5.39-7.23s-9.44-3.32-17.58-5.08a194.45,194.45,0,0,1-24.55-7.23,41.31,41.31,0,0,1-17-12.45q-7.26-8.68-7.26-23.53c0-14.49,5.17-25.22,15.48-32.08s23.33-10.3,39.14-10.3c15.53,0,28.34,3.44,38.32,10.3s15.15,17,15.39,30.56v2.3H217.88v-.78A12.83,12.83,0,0,0,214,270c-2.58-2.58-6.52-3.85-11.83-3.85s-9.15.83-11.91,2.5-4.14,3.74-4.14,6.16q0,5.18,5.62,7.72c3.79,1.65,9.86,3.42,18.25,5.18a186.45,186.45,0,0,1,24.1,6.87,41.17,41.17,0,0,1,16.51,11.65c4.73,5.39,7.15,12.74,7.23,22Q257.8,351.74,243.21,363.08Z"/><polygon class="cls-1" points="80.94 196.93 80.86 197.09 80.61 197.61 79.4 200.17 79.12 199.42 80.22 197.09 80.29 196.94 80.29 196.94 80.5 196.5 80.73 196.5 80.94 196.93"/></g></g></svg>