<?xml version="1.0" encoding="utf-8"?>
<!-- Generator: Adobe Illustrator 25.2.3, SVG Export Plug-In . SVG Version: 6.00 Build 0)  -->
<svg version="1.1" id="Layer_1" xmlns="http://www.w3.org/2000/svg" xmlns:xlink="http://www.w3.org/1999/xlink" x="0px" y="0px"
	 viewBox="0 0 345 337" style="enable-background:new 0 0 345 337;" xml:space="preserve">
<g>
	<path d="M330.8,239.2v70.3c0,1.4-0.2,2.7-0.5,3.9l0,0l0,0c-1.4,6.9-7.5,12.1-14.7,12.1H28.3c-7.7,0-14.1-5.9-14.9-13.4
		c-0.2-0.9-0.2-1.7-0.2-2.7v-70.3c0-8.3,6.8-15,15-15c4.1,0,7.9,1.7,10.6,4.4c2.7,2.7,4.4,6.5,4.4,10.6v56.3h257.7v-56.3
		c0-8.3,6.8-15,15-15c4.1,0,7.9,1.7,10.6,4.4C329.1,231.3,330.8,235.1,330.8,239.2z"/>
	<path d="M258.5,168.8l-73.7,73.7c-0.1,0.2-0.3,0.3-0.4,0.4c-2.7,2.7-6.2,4.4-9.7,4.9c-0.3,0-0.6,0.1-0.9,0.1
		c-0.6,0.1-1.2,0.1-1.8,0.1l0,0l-1.7-0.1c-0.3,0-0.6-0.1-0.9-0.1c-3.6-0.5-7-2.2-9.7-4.9c-0.1-0.1-0.3-0.3-0.4-0.4l-73.7-73.7
		c-3.4-3.4-5.1-7.9-5.1-12.4s1.7-9,5.1-12.4c6.8-6.8,17.9-6.8,24.8,0l44.3,44.3V26c0-9.6,7.9-17.5,17.5-17.5c4.8,0,9.2,2,12.4,5.1
		c3.2,3.2,5.1,7.5,5.1,12.4v162.3L234,144c6.8-6.8,17.9-6.8,24.8,0C265.3,150.9,265.3,162,258.5,168.8z"/>
</g>
</svg>
